<svg width="59" height="52" viewBox="0 0 59 52" fill="none" xmlns="http://www.w3.org/2000/svg">
<g id="Group 1">
<g id="Group">
<g id="Group_2">
<path id="Vector" fill-rule="evenodd" clip-rule="evenodd" d="M53.6326 19.1111C58.9885 14.451 60.5235 6.86071 57.3868 0.547363C40.6419 17.4528 35.0659 23.1619 35.0659 23.1619C30.6869 27.6445 29.1088 31.9225 33.1951 38.867C46.8201 25.6963 53.6326 19.1111 53.6326 19.1111Z" fill="white"/>
<path id="Vector_2" fill-rule="evenodd" clip-rule="evenodd" d="M37.3434 45.8229L40.4188 51.1201C45.6066 48.4583 47.9274 42.6235 46.2257 37.2234L52.4093 31.209C54.6864 29.2276 55.3392 26.0004 54.0056 23.3159L38.5055 39.0058C35.1439 42.501 36.827 44.9456 37.3434 45.8229Z" fill="white"/>
</g>
<g id="Group_3">
<path id="Vector_3" fill-rule="evenodd" clip-rule="evenodd" d="M5.36731 19.1111C0.0116711 14.451 -1.52333 6.86071 1.61319 0.547363C18.3581 17.4528 23.9342 23.1619 23.9342 23.1619C28.3131 27.6445 29.8912 31.9225 25.8048 38.867C12.1798 25.6963 5.36731 19.1111 5.36731 19.1111Z" fill="white"/>
<path id="Vector_4" fill-rule="evenodd" clip-rule="evenodd" d="M21.6569 45.8229L18.5814 51.1201C13.3935 48.4583 11.0726 42.6235 12.7744 37.2234L6.59071 31.209C4.31369 29.2276 3.66086 26.0004 4.99443 23.3159L20.4945 39.0058C23.8561 42.501 22.1731 44.9456 21.6569 45.8229Z" fill="white"/>
</g>
</g>
<path id="Vector_5" fill-rule="evenodd" clip-rule="evenodd" d="M23.3727 51.1201H21.0068L29.5001 36.4048L37.9934 51.1201H35.6276C35.6276 47.7999 32.8842 45.1083 29.5001 45.1083C26.1161 45.1083 23.3727 47.7999 23.3727 51.1201Z" fill="white"/>
</g>
</svg>
